{"accessors" : [{"bufferView" : 0, "byteOffset" : 0, "componentType" : 5123, "count" : 3, "type" : "SCALAR", "max" : [2], "min" : [0]}, {"bufferView" : 1, "byteOffset" : 0, "componentType" : 5126, "count" : 3, "type" : "VEC3", "max" : [-4689289.5, 4246273, 837217.875], "min" : [-4774424.5, 4163079.25, 671001.625], "name" : "POSITION"}], "asset" : {"generator" : "Aspose.3D 22.1", "version" : "2.0"}, "buffers" : [{"uri" : "data:application/octet-stream;base64,", "byteLength" : 52}], "bufferViews" : [{"buffer" : 0, "byteOffset" : 0, "byteLength" : 8, "target" : 34963}, {"buffer" : 0, "byteOffset" : 12, "byteLength" : 36, "byteStride" : 12, "target" : 34962}], "meshes" : [{"primitives" : [{"attributes" : {"POSITION" : 1}, "indices" : 0, "mode" : 4}]}], "nodes" : [{"mesh" : 0, "name" : "Node #0"}], "scene" : 0, "scenes" : [{"nodes" : [0]}]}